<svg width="24" height="25" viewBox="0 0 24 25" fill="none" xmlns="http://www.w3.org/2000/svg">
<g id="icn_inner">
<path id="Shape" fill-rule="evenodd" clip-rule="evenodd" d="M12 0.875C5.37258 0.875 0 6.07969 0 12.5C0 18.9203 5.37258 24.125 12 24.125C18.6274 24.125 24 18.9203 24 12.5C23.9928 6.08257 18.6244 0.881941 12 0.875ZM12 19.2812C11.1716 19.2812 10.5 18.6307 10.5 17.8281C10.5 17.0256 11.1716 16.375 12 16.375C12.8284 16.375 13.5 17.0256 13.5 17.8281C13.5 18.6307 12.8284 19.2812 12 19.2812ZM13 14.2796C12.9998 13.8942 13.2354 13.5454 13.6 13.3912C15.431 12.6171 16.3916 10.6539 15.8504 8.7909C15.3092 6.92792 13.432 5.73746 11.453 6.00213C9.47397 6.26679 7.99997 7.90542 8 9.84078C8 10.3758 8.44772 10.8095 9 10.8095C9.55229 10.8095 10 10.3758 10 9.84078C9.99949 8.87298 10.7362 8.05324 11.7258 7.92057C12.7154 7.7879 13.6543 8.383 13.9251 9.31456C14.1959 10.2461 13.7156 11.2284 12.8 11.6155C11.7066 12.0778 10.9998 13.1238 11 14.2796C11 14.8146 11.4477 15.2483 12 15.2483C12.5523 15.2483 13 14.8146 13 14.2796Z" fill="#1A203D"/>
</g>
</svg>
